<?xml version="1.0" standalone="no"?>
<!DOCTYPE svg PUBLIC "-//W3C//DTD SVG 20010904//EN"
 "http://www.w3.org/TR/2001/REC-SVG-20010904/DTD/svg10.dtd">
<svg version="1.0" xmlns="http://www.w3.org/2000/svg"
 width="569.000000pt" height="439.000000pt" viewBox="0 0 569.000000 439.000000"
 preserveAspectRatio="xMidYMid meet">

<g transform="translate(0.000000,439.000000) scale(0.100000,-0.100000)"
fill="#000000" stroke="none">
<path d="M2255 2602 c-114 -40 -261 -183 -328 -317 -75 -151 -75 -301 -1 -350
28 -18 32 -5 9 35 -8 14 -14 43 -15 65 l0 40 22 -44 c12 -24 38 -55 59 -70 49
-34 49 -45 -2 -38 -28 4 -39 2 -36 -6 2 -7 11 -12 20 -12 8 0 19 -4 24 -9 4
-5 3 -6 -4 -2 -7 4 -13 3 -13 -1 0 -15 23 -33 42 -33 9 0 26 -9 37 -21 42 -45
140 -40 244 12 70 36 196 172 244 264 23 44 43 93 45 107 2 15 7 30 11 34 15
15 7 63 -12 73 -13 7 -17 18 -13 36 4 21 7 23 20 13 13 -11 14 -8 7 22 -4 19
-13 47 -21 61 -15 30 -147 138 -178 146 -53 14 -114 12 -161 -5z m194 -40 c25
-18 42 -62 24 -62 -4 0 -43 18 -86 39 -53 27 -72 41 -60 45 33 9 96 -2 122
-22z m-159 -54 c0 -14 5 -18 15 -14 8 3 14 2 13 -2 -2 -11 14 -46 26 -55 8 -6
7 -10 -1 -14 -7 -2 -13 -11 -13 -18 0 -8 -9 -19 -20 -25 -16 -9 -22 -8 -26 5
-3 8 -11 12 -16 9 -6 -4 -5 4 2 16 12 23 6 40 -9 24 -5 -5 -19 -33 -30 -62
-20 -51 -20 -79 0 -66 5 3 9 2 8 -3 -2 -15 13 -53 22 -53 5 0 9 -8 9 -17 0
-14 -2 -15 -9 -5 -6 10 -10 3 -15 -23 -8 -40 -65 -110 -99 -121 -22 -7 -22 -7
-2 -16 16 -7 15 -8 -8 -4 -22 3 -31 -2 -39 -20 -13 -27 -37 -39 -51 -25 -7 7
-7 18 0 33 8 18 5 26 -13 42 -34 31 -36 86 -4 86 20 0 24 -9 21 -42 -3 -21 6
-23 23 -5 19 19 66 127 55 127 -5 0 -18 9 -29 20 -15 15 -18 27 -13 52 12 61
73 138 121 153 12 3 22 12 22 20 0 7 7 21 16 30 19 19 44 4 44 -27z m274 -64
c3 -9 6 -52 6 -95 0 -65 -5 -90 -25 -132 -39 -81 -83 -156 -108 -183 -45 -50
-118 -119 -125 -119 -4 0 -28 -13 -54 -28 -31 -19 -67 -30 -105 -34 -65 -6
-63 3 7 32 76 32 147 83 213 156 62 66 137 193 137 230 0 10 5 21 11 25 11 6
8 60 -6 117 -6 21 -4 27 9 27 9 0 16 5 16 10 0 16 17 12 24 -6z m-217 -66 c-3
-7 -5 -2 -5 12 0 14 2 19 5 13 2 -7 2 -19 0 -25z m134 -72 c-14 -36 -22 -33
-9 5 6 16 12 28 14 26 3 -2 0 -16 -5 -31z m-50 -39 c-10 -9 -11 -8 -5 6 3 10
9 15 12 12 3 -3 0 -11 -7 -18z m-510 -44 c-12 -20 -14 -14 -5 12 4 9 9 14 11
11 3 -2 0 -13 -6 -23z m289 -133 c-14 -11 -29 -20 -35 -20 -5 0 4 9 20 20 38
25 48 25 15 0z m-197 -88 c-3 -12 -9 -22 -14 -22 -12 0 -11 7 2 32 13 25 20
19 12 -10z m37 -34 c0 -6 -7 -5 -15 2 -8 7 -15 17 -15 22 0 6 7 5 15 -2 8 -7
15 -17 15 -22z"/>
<path d="M2178 2413 c-19 -22 -48 -78 -48 -93 0 -25 18 -6 43 46 29 59 31 76
5 47z"/>
<path d="M2183 2248 c-20 -27 -52 -119 -40 -115 6 2 17 13 23 25 6 12 14 19
18 15 4 -4 4 1 0 11 -4 11 -3 17 2 14 5 -4 10 9 11 28 3 37 1 41 -14 22z"/>
<path d="M3635 2571 c-57 -27 -68 -51 -73 -163 -2 -54 -8 -98 -12 -98 -5 0
-60 54 -122 121 -62 66 -125 127 -140 135 -15 8 -46 14 -69 14 -33 0 -47 -6
-75 -34 -29 -29 -34 -41 -34 -83 0 -46 3 -53 58 -109 31 -33 87 -92 124 -131
37 -38 83 -84 103 -102 20 -17 33 -31 31 -31 -3 0 27 -34 67 -75 39 -41 75
-75 79 -75 4 0 7 84 7 188 -1 312 -4 285 34 301 17 7 60 27 95 42 35 16 68 29
73 29 12 0 11 4 -2 33 -22 49 -85 66 -144 38z"/>
<path d="M1374 2571 c-94 -24 -184 -97 -227 -186 -26 -52 -47 -135 -47 -185
l0 -28 -100 -4 c-97 -3 -100 -4 -132 -36 -27 -27 -33 -40 -33 -76 0 -25 4 -48
8 -52 4 -5 79 -9 166 -11 l159 -2 -24 69 c-32 91 -33 139 -4 200 13 28 27 50
32 50 4 0 8 6 8 13 1 16 67 61 115 77 48 16 121 7 177 -21 24 -12 45 -25 48
-29 3 -3 13 -10 24 -13 13 -5 17 -3 13 7 -4 10 -1 13 7 10 8 -3 17 -1 21 5 3
6 13 11 21 11 8 0 32 11 53 24 21 14 42 22 45 19 3 -4 6 -1 6 6 0 8 7 11 15 7
23 -8 11 41 -17 71 -44 47 -121 75 -216 79 -48 2 -101 0 -118 -5z"/>
<path d="M2764 2546 l-34 -34 0 -285 c0 -244 2 -286 15 -291 8 -3 15 -2 15 3
0 4 6 8 13 8 6 0 37 11 67 25 30 14 70 32 88 39 l33 14 -3 248 -3 249 -33 29
c-26 23 -42 29 -78 29 -39 0 -51 -5 -80 -34z"/>
<path d="M4035 2561 c-52 -24 -88 -59 -114 -108 -22 -43 -26 -67 -21 -128 2
-36 3 -37 9 -13 3 15 21 43 39 62 l33 35 322 3 322 3 100 49 99 48 -37 34 -37
34 -337 0 c-307 0 -342 -2 -378 -19z"/>
<path d="M4267 2332 c-129 -3 -138 -9 -76 -50 32 -22 41 -23 141 -19 76 4 108
2 112 -6 3 -8 8 -7 15 3 9 12 11 13 11 1 0 -8 2 -12 5 -9 12 12 -10 39 -48 60
-38 21 -53 23 -160 20z"/>
<path d="M1370 2158 c0 -24 61 -88 103 -110 54 -27 148 -30 195 -5 18 10 30
22 27 27 -3 6 1 7 9 4 11 -4 19 2 25 17 7 19 4 29 -15 49 -24 24 -29 25 -184
28 -129 3 -160 1 -160 -10z"/>
<path d="M4005 2095 c-63 -17 -105 -61 -105 -111 0 -59 7 -61 190 -58 l165 3
33 36 c28 31 33 42 30 78 l-3 42 -115 6 c-63 4 -122 9 -130 12 -8 3 -37 0 -65
-8z"/>
</g>
</svg>
